<?xml version="1.0" encoding="UTF-8" standalone="no"?>
<svg
   xmlns:dc="http://purl.org/dc/elements/1.1/"
   xmlns:cc="http://creativecommons.org/ns#"
   xmlns:rdf="http://www.w3.org/1999/02/22-rdf-syntax-ns#"
   xmlns:svg="http://www.w3.org/2000/svg"
   xmlns="http://www.w3.org/2000/svg"
   xmlns:sodipodi="http://sodipodi.sourceforge.net/DTD/sodipodi-0.dtd"
   xmlns:inkscape="http://www.inkscape.org/namespaces/inkscape"
   sodipodi:docname="files.svg"
   inkscape:version="1.0 (4035a4fb49, 2020-05-01)"
   id="svg859"
   version="1.1"
   viewBox="0 0 108.47916 135.46666"
   height="135.46666mm"
   width="108.47916mm">
  <defs
     id="defs853" />
  <sodipodi:namedview
     inkscape:window-maximized="1"
     inkscape:window-y="-8"
     inkscape:window-x="1912"
     inkscape:window-height="1017"
     inkscape:window-width="1920"
     fit-margin-bottom="0"
     fit-margin-right="0"
     fit-margin-left="0"
     fit-margin-top="0"
     showgrid="false"
     inkscape:document-rotation="0"
     inkscape:current-layer="layer1"
     inkscape:document-units="mm"
     inkscape:cy="456.06946"
     inkscape:cx="502.55322"
     inkscape:zoom="0.48215445"
     inkscape:pageshadow="2"
     inkscape:pageopacity="0.0"
     borderopacity="1.0"
     bordercolor="#666666"
     pagecolor="#ffffff"
     id="base" />
  <metadata
     id="metadata856">
    <rdf:RDF>
      <cc:Work
         rdf:about="">
        <dc:format>image/svg+xml</dc:format>
        <dc:type
           rdf:resource="http://purl.org/dc/dcmitype/StillImage" />
        <dc:title></dc:title>
      </cc:Work>
    </rdf:RDF>
  </metadata>
  <g
     transform="translate(-58.186083,-50.437848)"
     id="layer1"
     inkscape:groupmode="layer"
     inkscape:label="Laag 1">
    <path
       id="path1436"
       d="M 58.186083,133.51701 V 81.129513 h 32.83416 32.834157 l 7.5148,7.317361 7.5148,7.317362 v 45.070134 45.07014 H 98.535043 58.186083 Z m 73.554167,5.55625 V 99.121179 h -5.82083 -5.82084 v -5.55625 -5.55625 H 92.581923 65.065253 v 45.508331 45.50833 h 33.3375 33.337497 z m -57.215777,27.31628 c -1.56783,-0.97207 -1.54865,-3.69865 0.0326,-4.63271 0.71997,-0.4253 2.39975,-0.45857 23.15473,-0.45857 h 22.378447 l 0.86406,0.77205 c 0.74185,0.66283 0.86407,0.94661 0.86407,2.00608 0,1.05947 -0.12222,1.34324 -0.86407,2.00607 l -0.86406,0.77205 -22.419267,-0.007 c -20.65365,-0.006 -22.47654,-0.0425 -23.1465,-0.45793 z m 1.18036,-12.36595 c -1.19708,-0.5244 -1.80908,-1.97807 -1.40317,-3.33288 0.58341,-1.94725 -0.99487,-1.82786 24.1652,-1.82786 24.735577,0 23.316917,-0.0929 24.006777,1.57255 0.44342,1.07051 0.15601,2.42777 -0.68054,3.21378 l -0.67863,0.63762 -22.269917,0.0589 c -18.89736,0.05 -22.40165,0.001 -23.13972,-0.32212 z m -0.64919,-13.71938 c -0.89969,-0.83381 -1.12532,-1.9933 -0.62221,-3.19744 0.76341,-1.82708 -0.29364,-1.75471 24.47935,-1.67596 l 22.201647,0.0706 0.67865,0.63762 c 0.83657,0.78601 1.12399,2.14326 0.68056,3.21378 -0.68995,1.6657 0.73704,1.57256 -24.091127,1.57256 h -22.65665 z m 0.35928,-11.98115 c -0.83001,-0.58136 -1.38585,-1.98815 -1.18411,-2.99686 0.0897,-0.44846 0.51405,-1.11071 0.94302,-1.47166 l 0.77994,-0.65628 h 22.47859 c 24.710087,0 23.352597,-0.0901 24.050987,1.59599 0.46689,1.12718 0.12592,2.48139 -0.82656,3.28286 l -0.80506,0.6774 H 98.441323 c -20.29041,0 -22.46868,-0.0408 -23.0264,-0.43145 z m 0.0625,-13.30488 c -1.08833,-0.66691 -1.57346,-2.05151 -1.1589,-3.30762 0.61044,-1.84968 -0.89012,-1.74146 24.14834,-1.74146 24.735577,0 23.316917,-0.0929 24.006777,1.57255 0.44343,1.07052 0.15601,2.42778 -0.68056,3.21378 l -0.67865,0.63763 -22.402187,0.0677 c -21.72407,0.0656 -22.4274,0.0522 -23.23482,-0.44254 z m 66.846157,51.30716 v -3.43958 h 1.5875 1.5875 V 122.93368 82.981596 h -5.82083 -5.82083 V 77.557638 72.13368 H 106.34025 78.823583 v 2.513542 2.513541 h -3.57187 -3.57188 v -6.085416 -6.085416 l 32.874477,0.0062 32.87448,0.0062 7.47448,7.294479 7.47448,7.294479 v 45.086841 45.08685 h -5.02708 -5.02709 z m 14.2875,-14.55208 v -3.43958 h 1.5875 1.5875 V 108.3816 68.429514 h -5.82083 -5.82083 v -5.55625 -5.55625 H 120.62775 93.111083 v 2.645834 2.645833 h -3.57187 -3.57188 v -6.085417 -6.085416 h 32.878177 32.87818 l 7.47076,7.209895 7.47076,7.209896 2e-5,45.177601 2e-5,45.1776 h -5.02709 -5.02708 z"
       style="fill:#48dbfb;stroke-width:1;fill-opacity:1" />
  </g>
</svg>
